HIERARCHY
ROOT root
{
	OFFSET 0.000000 0.000000 0.000000
	CHANNELS 6 Xposition Yposition Zposition Zrotation Yrotation Xrotation
	JOINT lhip
	{
		OFFSET 0.058581 -0.082280 -0.017664
		CHANNELS 3 Zrotation Yrotation Xrotation
		JOINT lknee
		{
			OFFSET 0.043451 -0.386469 0.008037
			CHANNELS 3 Zrotation Yrotation Xrotation
			JOINT lankle
			{
				OFFSET -0.014790 -0.426874 -0.037428
				CHANNELS 3 Zrotation Yrotation Xrotation
				JOINT ltoe
				{
					OFFSET 0.041054 -0.060286 0.122042
					CHANNELS 3 Zrotation Yrotation Xrotation
					End Site
					{
						OFFSET 0.000000 0.000000 0.000000
					}
				}
			}
		}
	}
	JOINT rhip
	{
		OFFSET -0.060310 -0.090513 -0.013543
		CHANNELS 3 Zrotation Yrotation Xrotation
		JOINT rknee
		{
			OFFSET -0.043257 -0.383688 -0.004843
			CHANNELS 3 Zrotation Yrotation Xrotation
			JOINT rankle
			{
				OFFSET 0.019056 -0.420046 -0.034562
				CHANNELS 3 Zrotation Yrotation Xrotation
				JOINT rtoe
				{
					OFFSET -0.034840 -0.062106 0.130323
					CHANNELS 3 Zrotation Yrotation Xrotation
					End Site
					{
						OFFSET 0.000000 0.000000 0.000000
					}
				}
			}
		}
	}
	JOINT lowerback
	{
		OFFSET 0.004439 0.124404 -0.038385
		CHANNELS 3 Zrotation Yrotation Xrotation
		JOINT upperback
		{
			OFFSET 0.004488 0.137956 0.026820
			CHANNELS 3 Zrotation Yrotation Xrotation
			JOINT chest
			{
				OFFSET -0.002265 0.056032 0.002855
				CHANNELS 3 Zrotation Yrotation Xrotation
				JOINT lowerneck
				{
					OFFSET -0.013390 0.211636 -0.033468
					CHANNELS 3 Zrotation Yrotation Xrotation
					JOINT upperneck
					{
						OFFSET 0.010113 0.088937 0.050410
						CHANNELS 3 Zrotation Yrotation Xrotation
						End Site
						{
							OFFSET 0.000000 0.000000 0.000000
						}
					}
				}
				JOINT lclavicle
				{
					OFFSET 0.071702 0.114000 -0.018898
					CHANNELS 3 Zrotation Yrotation Xrotation
					JOINT lshoulder
					{
						OFFSET 0.122921 0.045205 -0.019046
						CHANNELS 3 Zrotation Yrotation Xrotation
						JOINT lelbow
						{
							OFFSET 0.255332 -0.015649 -0.022946
							CHANNELS 3 Zrotation Yrotation Xrotation
							JOINT lwrist
							{
								OFFSET 0.265709 0.012698 -0.007375
								CHANNELS 3 Zrotation Yrotation Xrotation
								End Site
								{
									OFFSET 0.000000 0.000000 0.000000
								}
							}
						}
					}
				}
				JOINT rclavicle
				{
					OFFSET -0.082954 0.112472 -0.023707
					CHANNELS 3 Zrotation Yrotation Xrotation
					JOINT rshoulder
					{
						OFFSET -0.113228 0.046853 -0.008472
						CHANNELS 3 Zrotation Yrotation Xrotation
						JOINT relbow
						{
							OFFSET -0.260127 -0.014369 -0.031269
							CHANNELS 3 Zrotation Yrotation Xrotation
							JOINT rwrist
							{
								OFFSET -0.269108 0.006794 -0.006027
								CHANNELS 3 Zrotation Yrotation Xrotation
								End Site
								{
									OFFSET 0.000000 0.000000 0.000000
								}
							}
						}
					}
				}
			}
		}
	}
}
MOTION
Frames: 15
Frame Time: 0.033333
1.926392 0.283242 0.951190 78.342625 0.533843 86.698823 22.692739 -9.014002 -5.889253 -18.691947 -42.471078 44.972043 -9.576616 -7.119162 -17.592882 0.000000 -0.000000 0.000000 -13.137761 -10.969122 -23.962021 3.767563 -9.234200 54.366704 7.785075 -8.635598 -24.204268 0.000000 -0.000000 0.000000 -3.513790 2.380418 13.423441 -2.218488 7.523231 -8.064533 -2.952289 0.610250 4.729810 10.225210 -40.269280 2.294735 5.192403 -44.581619 -0.011568 -11.064305 27.058215 9.103100 -54.654824 7.397844 14.234238 -146.830669 -80.047919 173.798959 17.300641 -11.473424 -51.040121 7.104589 0.485364 -10.841789 6.802588 18.837401 -32.565232 -25.358398 3.657390 -46.491106 -13.806467 6.320770 -0.784929 
1.925368 0.281276 0.950284 77.524888 0.149693 86.749807 22.536770 -9.180634 -5.457338 -18.922071 -42.659560 44.648251 -9.727326 -7.151887 -17.369249 0.000000 -0.000000 0.000000 -13.237354 -10.600443 -24.558603 3.832638 -8.962813 54.725592 7.582460 -8.622004 -24.286358 0.000000 -0.000000 0.000000 -3.310921 2.239132 13.337464 -2.349581 7.614519 -7.733895 -3.098663 0.659468 4.583281 9.918403 -39.061501 1.952416 4.995745 -43.968595 -0.028758 -11.925704 26.169393 8.233556 -54.307513 7.096459 14.936321 -146.047879 -80.413700 172.797680 17.465069 -11.732263 -50.083417 7.215104 1.224140 -10.537766 6.649362 18.988008 -31.825321 -25.484495 3.977789 -47.196417 -14.846407 5.928130 -1.772452 
1.924824 0.281379 0.948498 76.648311 -0.012237 86.870672 22.390798 -9.893606 -5.343893 -19.659618 -42.769961 45.225234 -9.821011 -7.245758 -17.533529 0.000000 -0.000000 0.000000 -13.466950 -10.133888 -25.218914 4.071815 -8.989454 55.138740 7.466115 -8.472676 -24.313268 0.000000 -0.000000 0.000000 -2.913130 1.829382 13.050427 -2.328503 7.414171 -7.234502 -3.343077 0.585783 4.459719 9.916910 -37.870505 1.201555 4.680234 -43.294392 0.113369 -13.044482 25.390096 7.315582 -54.243261 6.519040 15.679450 -146.147071 -81.061244 172.573575 17.472707 -11.925787 -49.676659 7.761951 2.008954 -10.316131 5.823823 19.861621 -31.365841 -25.512109 4.862414 -47.265068 -15.468963 5.981857 -3.271512 
1.924713 0.283345 0.946245 75.567994 0.071156 86.874372 22.242936 -10.462466 -5.168725 -20.470127 -42.947804 46.264672 -9.896000 -7.600038 -17.795248 0.000000 -0.000000 0.000000 -13.662223 -9.783530 -25.810246 4.314303 -9.044932 55.536153 7.393768 -7.954006 -24.135635 0.000000 -0.000000 0.000000 -2.505329 1.284849 12.958467 -2.166077 6.970792 -6.823729 -3.484104 0.487896 4.220817 10.073638 -36.754128 0.355433 4.113252 -42.594629 0.604648 -14.139690 24.490491 6.558830 -54.730268 6.012424 16.093726 -145.501826 -81.943639 171.694346 17.469846 -11.847408 -48.895278 8.496782 2.869068 -10.181153 5.283948 21.083211 -31.037775 -26.285353 6.764592 -46.845431 -15.810663 6.283426 -3.433434 
1.925574 0.287124 0.944012 74.060047 0.354200 86.657506 22.056595 -10.684543 -4.559194 -21.226243 -43.048992 47.434873 -9.525535 -7.944328 -18.358351 0.000000 -0.000000 0.000000 -13.843325 -9.519707 -26.146877 4.662279 -9.018810 55.718547 7.383933 -7.026406 -23.670213 0.000000 -0.000000 0.000000 -2.171505 0.800426 13.166243 -1.958365 6.516877 -6.501533 -3.534255 0.474466 3.832299 10.404609 -35.792861 -0.540120 3.530596 -41.722095 1.468003 -15.295607 23.368404 5.714908 -55.336948 5.751328 16.401171 -144.181257 -83.019840 169.956176 16.877358 -11.896978 -47.872762 9.300196 3.654097 -10.121050 6.102884 21.949835 -29.723569 -28.092764 10.353514 -46.414444 -13.449132 6.255021 -3.906086 
1.926364 0.292879 0.942074 71.983843 0.780506 86.271145 21.746946 -10.712481 -3.616051 -21.764844 -42.618864 48.687577 -9.121628 -8.114464 -19.123382 0.000000 -0.000000 0.000000 -13.885447 -9.058479 -26.436514 4.992725 -8.787066 55.686244 7.519673 -5.859601 -22.931455 0.000000 -0.000000 0.000000 -1.980167 0.500761 13.441447 -1.693319 6.170558 -6.286759 -3.529316 0.404081 3.714644 10.821487 -34.592617 -1.347282 3.224563 -41.013288 2.315310 -16.788087 22.353256 4.752629 -55.865538 5.024334 16.537296 -138.727525 -84.267786 163.599994 16.322500 -12.107834 -46.660249 10.896912 4.003383 -9.733897 7.644731 22.730453 -27.348780 -30.577601 15.980490 -46.243016 -13.960171 6.791286 -4.876303 
1.927600 0.300842 0.940414 69.414030 1.297450 85.822292 21.218670 -10.692514 -2.470636 -21.941108 -41.520656 49.915504 -8.624638 -8.109620 -20.242333 0.000000 -0.000000 0.000000 -13.716634 -8.438381 -26.787751 5.165586 -8.212062 55.461103 7.770586 -4.549493 -21.955954 0.000000 -0.000000 0.000000 -1.897320 0.425239 13.591817 -1.334915 5.881693 -6.066792 -3.448912 0.258776 3.509600 10.993141 -33.268093 -1.684842 2.949825 -40.416230 3.107298 -18.423608 21.146521 4.133744 -56.561399 4.095396 16.417316 -126.155562 -85.812605 149.926220 16.143801 -12.189954 -44.632759 12.965860 4.018862 -9.128545 10.357082 23.090134 -23.762819 -33.517911 23.297740 -45.764849 -16.994664 7.683376 -5.285444 
1.929643 0.311039 0.938907 66.602051 1.854252 85.342641 20.485785 -10.706443 -1.223308 -21.910566 -40.064170 50.951051 -8.016347 -8.084035 -21.721206 0.000000 -0.000000 0.000000 -13.416840 -7.613181 -27.122033 5.181594 -7.362615 54.999671 8.066229 -3.337624 -20.809470 0.000000 -0.000000 0.000000 -1.881664 0.459033 13.483908 -0.792044 5.559473 -5.678422 -3.328138 0.097314 3.153013 10.783167 -31.726329 -1.580095 2.545505 -39.939751 3.858606 -19.930415 19.539736 3.919396 -57.466486 3.327120 16.303402 -98.523473 -87.558330 121.287276 15.337163 -12.447798 -41.900793 14.930414 3.730176 -8.588330 14.901888 22.947531 -19.027030 -37.234802 31.327278 -44.533306 -15.916820 8.501251 -4.834343 
1.932726 0.323607 0.937448 63.606016 2.370847 84.697182 19.482291 -10.464773 0.228770 -21.901896 -38.841066 51.879178 -7.321878 -8.073439 -23.356715 0.000000 -0.000000 0.000000 -13.164838 -6.747814 -27.273052 5.159644 -6.228884 54.254135 8.455292 -2.215705 -19.442526 0.000000 -0.000000 0.000000 -1.881940 0.403780 13.527027 -0.327051 5.125014 -5.302509 -3.173683 -0.133742 2.996727 10.482417 -30.373526 -1.694292 2.557199 -38.743207 4.275359 -21.518088 18.061373 3.493775 -58.113900 2.642055 16.065806 -45.873306 -87.863499 67.766088 14.222046 -12.721528 -39.100112 16.887248 3.355982 -8.165924 20.625224 22.098457 -13.510100 -41.142550 39.359034 -43.640315 -12.711199 9.384879 -3.948627 
1.936027 0.339181 0.935914 60.691470 2.875329 84.149239 18.424555 -10.189928 1.345122 -22.105252 -37.766520 52.891614 -6.641715 -7.948826 -24.810605 0.000000 -0.000000 0.000000 -13.084957 -5.925506 -27.529258 5.130800 -5.139060 53.176650 9.018376 -1.120958 -17.775692 0.000000 -0.000000 0.000000 -1.808582 0.140259 13.726188 0.054430 4.534911 -5.196240 -3.027119 -0.307375 2.908063 10.127360 -28.942732 -1.860258 2.912582 -37.428505 4.414065 -22.895367 16.677574 3.167466 -58.603458 1.628199 16.028215 -16.769126 -86.641338 37.486729 13.798513 -12.568850 -37.205377 18.879948 2.865666 -7.407079 26.565068 20.209445 -7.690279 -43.757904 47.104923 -42.679567 -11.667146 10.195635 -4.718270 
1.939701 0.357991 0.934521 57.879755 3.344969 83.743502 17.377335 -9.874527 2.323526 -22.346173 -36.984154 53.369795 -5.957423 -7.787336 -26.273650 0.000000 -0.000000 0.000000 -13.147063 -5.272870 -27.948087 5.081605 -3.995725 51.737312 9.778591 -0.061573 -15.741414 0.000000 -0.000000 0.000000 -1.679013 -0.210703 13.857254 0.487374 3.878306 -5.030342 -2.872581 -0.406820 2.624108 9.676057 -27.480062 -1.905361 3.304931 -36.413802 4.396866 -24.169840 15.091010 3.174094 -58.817998 0.190775 16.300049 -6.303566 -85.013143 25.781921 14.011804 -12.337504 -35.834770 21.071669 2.355357 -6.073796 31.864423 17.285980 -2.370783 -44.014912 53.746414 -39.922751 -11.404414 11.029979 -6.037207 
1.944220 0.379709 0.933972 54.950969 3.574797 83.262355 16.071555 -9.100442 3.749878 -22.358560 -36.614459 52.943520 -4.941970 -7.613158 -27.864976 0.000000 -0.000000 0.000000 -13.291185 -4.940048 -28.281323 4.877279 -2.373933 49.803104 10.711738 1.013686 -13.111400 0.000000 -0.000000 0.000000 -1.736288 -0.422914 14.047833 0.907920 3.224967 -4.688471 -2.594082 -0.495706 2.189296 9.077202 -26.017677 -1.888067 3.742336 -35.475466 4.443761 -25.193082 13.232931 3.376173 -58.835372 -1.443867 16.671707 -1.819414 -83.428555 20.296040 13.798379 -12.623029 -33.946718 23.289723 1.891925 -4.538309 36.726857 13.619879 1.937989 -40.995998 58.321059 -34.267465 -8.454046 11.975491 -5.401250 
1.948005 0.405278 0.934610 51.879853 3.496947 83.048856 14.592985 -8.374387 4.970607 -22.597092 -35.432366 51.590950 -2.589116 -5.892912 -30.266375 0.000000 -0.000000 0.000000 -13.615912 -4.503768 -28.889076 5.108948 -0.147048 46.983024 11.746710 0.668340 -9.684140 0.000000 -0.000000 0.000000 -1.943323 -0.488549 13.800225 1.438731 2.786630 -3.244751 -2.502833 -0.850972 1.621812 9.083097 -24.692821 -3.771058 3.064103 -34.498807 5.864552 -26.509048 12.276398 2.757892 -57.654596 -4.261879 17.973797 -4.129471 -81.677707 21.971311 13.944550 -13.227483 -32.167629 25.921922 0.655381 -4.019394 41.581070 10.280501 7.337001 -37.106980 59.007119 -27.754438 -4.250197 11.467595 -3.513135 
1.950286 0.435078 0.937201 49.277089 3.436761 83.394770 13.498475 -7.432891 5.033616 -22.070484 -33.315671 49.088117 -0.233433 -4.367025 -32.024535 0.000000 -0.000000 0.000000 -14.059319 -4.379640 -29.339324 4.666187 1.549188 42.491582 13.373652 0.589070 -4.560779 0.000000 -0.000000 0.000000 -2.058105 -0.651797 13.748347 2.000650 2.043489 -2.359153 -2.400451 -1.326094 1.136481 9.034473 -23.304777 -5.108880 3.022554 -33.286248 6.409525 -27.228891 11.189771 2.869871 -57.014078 -7.180487 18.967309 -4.047144 -79.934701 22.136907 14.019255 -14.077313 -30.363747 27.906724 -1.026056 -3.239917 47.429077 7.066837 11.171697 -34.654551 56.623608 -23.625444 -1.254716 10.564975 -2.763456 
1.951888 0.467579 0.942341 46.484096 3.184351 84.051663 12.215477 -5.866527 4.825090 -20.457607 -31.293675 45.252760 1.624140 -3.851601 -33.200094 0.000000 -0.000000 0.000000 -14.365172 -4.762247 -30.052228 3.322194 2.518758 37.028033 15.723193 1.117882 2.407176 0.000000 -0.000000 0.000000 -2.396438 -0.854980 14.306730 2.494556 1.143884 -2.700643 -1.927885 -1.584740 0.964884 8.442187 -21.586510 -5.668340 3.769718 -32.025525 5.703769 -27.211337 9.944524 3.144123 -56.994260 -9.243130 18.945763 -4.338146 -78.023586 22.351845 13.227309 -15.031129 -28.357608 29.511833 -2.772701 -2.315722 53.106185 3.625121 12.171054 -34.036835 53.065693 -23.202760 -0.122750 9.440360 -2.964249 
